<mxfile host="app.diagrams.net" modified="2022-12-15T17:04:42.283Z" agent="5.0 (Windows NT 10.0; Win64; x64) AppleWebKit/537.36 (KHTML, like Gecko) Chrome/108.0.0.0 Safari/537.36" version="20.6.2" etag="FJHddhhQxmfINUxcgOgT" type="github">
  <diagram id="WNtNO6ih7kzcM9C3CqSP" name="Página-1">
    <mxGraphModel dx="1422" dy="754" grid="1" gridSize="10" guides="1" tooltips="1" connect="1" arrows="1" fold="1" page="1" pageScale="1" pageWidth="827" pageHeight="1169" background="#DAD2D8" math="0" shadow="0">
      <root>
        <mxCell id="0" />
        <mxCell id="1" parent="0" />
        <mxCell id="2xYd1RtEskTdpCteiKWY-2" value="BD 1T" style="shape=cylinder3;whiteSpace=wrap;html=1;boundedLbl=1;backgroundOutline=1;size=15;strokeColor=#0F8B8D;fontColor=#143642;fillColor=#FAE5C7;" vertex="1" parent="1">
          <mxGeometry x="720" y="360" width="60" height="80" as="geometry" />
        </mxCell>
        <mxCell id="2xYd1RtEskTdpCteiKWY-7" style="edgeStyle=orthogonalEdgeStyle;rounded=0;orthogonalLoop=1;jettySize=auto;html=1;strokeColor=#A8201A;fontColor=#143642;fillColor=#FAE5C7;" edge="1" parent="1" source="2xYd1RtEskTdpCteiKWY-5" target="2xYd1RtEskTdpCteiKWY-6">
          <mxGeometry relative="1" as="geometry" />
        </mxCell>
        <mxCell id="2xYd1RtEskTdpCteiKWY-10" style="edgeStyle=orthogonalEdgeStyle;rounded=0;orthogonalLoop=1;jettySize=auto;html=1;strokeColor=#A8201A;fontColor=#143642;fillColor=#FAE5C7;" edge="1" parent="1" source="2xYd1RtEskTdpCteiKWY-5">
          <mxGeometry relative="1" as="geometry">
            <mxPoint x="740" y="350" as="targetPoint" />
          </mxGeometry>
        </mxCell>
        <mxCell id="2xYd1RtEskTdpCteiKWY-5" value="API" style="rounded=0;whiteSpace=wrap;html=1;strokeColor=#0F8B8D;fontColor=#143642;fillColor=#FAE5C7;" vertex="1" parent="1">
          <mxGeometry x="610" y="90" width="120" height="60" as="geometry" />
        </mxCell>
        <mxCell id="2xYd1RtEskTdpCteiKWY-6" value="NODO&lt;br&gt;BLOQUES .DAT" style="shape=cube;whiteSpace=wrap;html=1;boundedLbl=1;backgroundOutline=1;darkOpacity=0.05;darkOpacity2=0.1;strokeColor=#0F8B8D;fontColor=#143642;fillColor=#FAE5C7;" vertex="1" parent="1">
          <mxGeometry x="60" y="80" width="120" height="80" as="geometry" />
        </mxCell>
        <mxCell id="2xYd1RtEskTdpCteiKWY-8" value="API importa cada 24horas del nodo todos los bloques .dat desde el ultimo en donde se haya quedado en la llamada previa. Y los transforma en un formaro json para añadir a la base de datos" style="shape=note;whiteSpace=wrap;html=1;backgroundOutline=1;fontColor=#000000;darkOpacity=0.05;fillColor=#FFF9B2;strokeColor=none;fillStyle=solid;direction=west;gradientDirection=north;gradientColor=#FFF2A1;shadow=1;size=20;pointerEvents=1;" vertex="1" parent="1">
          <mxGeometry x="270" y="20" width="320" height="80" as="geometry" />
        </mxCell>
        <mxCell id="2xYd1RtEskTdpCteiKWY-11" value="API exporta cada 24 horas los bloques en formato json para añadir a la tabla o carpeta principal de la BD" style="shape=note;whiteSpace=wrap;html=1;backgroundOutline=1;fontColor=#000000;darkOpacity=0.05;fillColor=#FFF9B2;strokeColor=none;fillStyle=solid;direction=west;gradientDirection=north;gradientColor=#FFF2A1;shadow=1;size=20;pointerEvents=1;" vertex="1" parent="1">
          <mxGeometry x="520" y="200" width="200" height="80" as="geometry" />
        </mxCell>
        <mxCell id="2xYd1RtEskTdpCteiKWY-16" style="edgeStyle=orthogonalEdgeStyle;rounded=0;orthogonalLoop=1;jettySize=auto;html=1;strokeColor=#A8201A;fontColor=#143642;fillColor=#FAE5C7;" edge="1" parent="1" source="2xYd1RtEskTdpCteiKWY-12" target="2xYd1RtEskTdpCteiKWY-2">
          <mxGeometry relative="1" as="geometry" />
        </mxCell>
        <mxCell id="2xYd1RtEskTdpCteiKWY-18" style="edgeStyle=orthogonalEdgeStyle;rounded=0;orthogonalLoop=1;jettySize=auto;html=1;strokeColor=#A8201A;fontColor=#143642;fillColor=#FAE5C7;" edge="1" parent="1" source="2xYd1RtEskTdpCteiKWY-12" target="2xYd1RtEskTdpCteiKWY-17">
          <mxGeometry relative="1" as="geometry" />
        </mxCell>
        <mxCell id="2xYd1RtEskTdpCteiKWY-12" value="API&amp;nbsp; 2" style="rounded=0;whiteSpace=wrap;html=1;strokeColor=#0F8B8D;fontColor=#143642;fillColor=#FAE5C7;" vertex="1" parent="1">
          <mxGeometry x="130" y="350" width="120" height="60" as="geometry" />
        </mxCell>
        <mxCell id="2xYd1RtEskTdpCteiKWY-15" value="API 2 , consulta los datos de la BD para mostrar enb streamlit" style="shape=note;whiteSpace=wrap;html=1;backgroundOutline=1;fontColor=#000000;darkOpacity=0.05;fillColor=#FFF9B2;strokeColor=none;fillStyle=solid;direction=west;gradientDirection=north;gradientColor=#FFF2A1;shadow=1;size=20;pointerEvents=1;" vertex="1" parent="1">
          <mxGeometry x="400" y="410" width="200" height="80" as="geometry" />
        </mxCell>
        <mxCell id="2xYd1RtEskTdpCteiKWY-17" value="Streamlit" style="rounded=0;whiteSpace=wrap;html=1;strokeColor=#0F8B8D;fontColor=#143642;fillColor=#FAE5C7;" vertex="1" parent="1">
          <mxGeometry x="60" y="530" width="120" height="60" as="geometry" />
        </mxCell>
      </root>
    </mxGraphModel>
  </diagram>
</mxfile>
